<svg width="256" height="256" viewBox="0 0 256 256" fill="none" xmlns="http://www.w3.org/2000/svg">
  <g clip-path="url(#clip0_171_9582)">
    <path fill-rule="evenodd" clip-rule="evenodd" d="M128 256C230.4 256 256 230.4 256 128C256 25.6 230.4 0 128 0C25.6 0 0 25.6 0 128C0 230.4 25.6 256 128 256Z" fill="#EC3750" />
    <path d="M190.777 196.666C192.786 196.666 193.79 197.671 193.79 199.68V205.707C193.79 207.716 192.786 208.72 190.777 208.72H136.132C134.123 208.72 133.119 207.716 133.119 205.707V199.68C133.119 197.671 134.123 196.666 136.132 196.666H136.735C140.485 196.666 143.164 194.858 144.771 191.242C146.378 187.492 147.182 182.938 147.182 177.581V143.227C147.182 136.53 146.311 131.574 144.57 128.36C142.829 125.012 138.878 123.338 132.717 123.338C127.761 123.338 122.873 124.811 118.051 127.757C113.363 130.704 110.082 134.32 108.207 138.606V177.581C108.207 182.938 109.412 187.492 111.823 191.242C114.368 194.858 118.118 196.666 123.074 196.666H123.475C125.484 196.666 126.489 197.671 126.489 199.68V205.707C126.489 207.716 125.484 208.72 123.475 208.72H65.0135C63.0045 208.72 62 207.716 62 205.707V199.68C62 197.671 63.0045 196.666 65.0135 196.666H65.4153C70.3708 196.666 74.054 194.858 76.4648 191.242C78.8756 187.492 80.081 182.938 80.081 177.581V102.243C80.081 98.6268 79.8131 95.1445 79.2774 91.7962C78.8756 88.4479 77.8711 85.6353 76.2639 83.3584C74.6567 80.9476 71.978 79.5413 68.2279 79.1395C66.6207 79.0056 65.8171 78.135 65.8171 76.5278V69.6972C65.8171 68.8936 66.018 68.3579 66.4198 68.09C66.9555 67.6882 67.6922 67.3534 68.6297 67.0855C74.9246 64.9426 81.2864 62.3978 87.7152 59.4513C94.2779 56.5048 100.506 52.8216 106.399 48.4018C106.801 48.1339 107.136 48 107.403 48H107.604C107.872 48 108.006 48.1339 108.006 48.4018V125.547C109.212 123.137 111.221 120.391 114.033 117.31C116.98 114.23 120.73 111.551 125.284 109.274C129.837 106.864 135.195 105.658 141.356 105.658C147.65 105.658 153.343 106.663 158.432 108.672C163.655 110.681 167.807 114.23 170.888 119.319C173.968 124.275 175.509 131.307 175.509 140.414V177.581C175.509 182.938 176.714 187.492 179.125 191.242C181.536 194.858 185.219 196.666 190.174 196.666H190.777Z" fill="white" />
  </g>
  <defs>
    <clipPath id="clip0_171_9582">
      <rect width="256" height="256" fill="white" />
    </clipPath>
  </defs>
</svg>